<mxfile host="Electron" modified="2023-11-13T18:24:34.435Z" agent="Mozilla/5.0 (X11; Linux x86_64) AppleWebKit/537.36 (KHTML, like Gecko) draw.io/22.0.3 Chrome/114.0.5735.289 Electron/25.8.4 Safari/537.36" etag="UkctIldiq5UtaR80VMkk" version="22.0.3" type="device" pages="2">
  <diagram name="Page-1" id="p7R4AcTIF9QQXqpeVO7Y">
    <mxGraphModel dx="1195" dy="654" grid="1" gridSize="10" guides="1" tooltips="1" connect="1" arrows="1" fold="1" page="1" pageScale="1" pageWidth="850" pageHeight="1100" math="0" shadow="0">
      <root>
        <mxCell id="0" />
        <mxCell id="1" parent="0" />
        <mxCell id="SMVcqyuhqhL3269I1vGI-30" style="edgeStyle=orthogonalEdgeStyle;shape=connector;rounded=0;orthogonalLoop=1;jettySize=auto;html=1;labelBackgroundColor=default;strokeColor=default;align=center;verticalAlign=middle;fontFamily=Helvetica;fontSize=11;fontColor=default;startArrow=diamondThin;startFill=0;endArrow=none;endFill=0;" edge="1" parent="1" source="SMVcqyuhqhL3269I1vGI-1" target="SMVcqyuhqhL3269I1vGI-21">
          <mxGeometry relative="1" as="geometry">
            <Array as="points">
              <mxPoint x="400" y="160" />
              <mxPoint x="400" y="145" />
            </Array>
          </mxGeometry>
        </mxCell>
        <mxCell id="SMVcqyuhqhL3269I1vGI-33" style="edgeStyle=orthogonalEdgeStyle;shape=connector;rounded=0;orthogonalLoop=1;jettySize=auto;html=1;labelBackgroundColor=default;strokeColor=default;align=center;verticalAlign=middle;fontFamily=Helvetica;fontSize=11;fontColor=default;startArrow=diamondThin;startFill=0;endArrow=none;endFill=0;" edge="1" parent="1" source="SMVcqyuhqhL3269I1vGI-1" target="SMVcqyuhqhL3269I1vGI-5">
          <mxGeometry relative="1" as="geometry">
            <Array as="points">
              <mxPoint x="400" y="190" />
              <mxPoint x="400" y="370" />
            </Array>
          </mxGeometry>
        </mxCell>
        <mxCell id="SMVcqyuhqhL3269I1vGI-1" value="Activity" style="swimlane;fontStyle=1;align=center;verticalAlign=top;childLayout=stackLayout;horizontal=1;startSize=26;horizontalStack=0;resizeParent=1;resizeParentMax=0;resizeLast=0;collapsible=1;marginBottom=0;whiteSpace=wrap;html=1;fontFamily=Courier New;" vertex="1" parent="1">
          <mxGeometry x="40" y="40" width="320" height="330" as="geometry" />
        </mxCell>
        <mxCell id="SMVcqyuhqhL3269I1vGI-2" value="+ id: string&lt;br&gt;- name: string&lt;br&gt;- type: enum&lt;br&gt;- status: enum&lt;br&gt;- date: DateTime&lt;br&gt;- startTime: DateTime&lt;br&gt;- endTime: DateTime&lt;br&gt;- speedData:&amp;nbsp;FloatSnapshots&lt;br&gt;- heartRateData:&amp;nbsp;FloatSnapshots&lt;br&gt;- mapServiceId: string" style="text;strokeColor=none;fillColor=none;align=left;verticalAlign=top;spacingLeft=4;spacingRight=4;overflow=hidden;rotatable=0;points=[[0,0.5],[1,0.5]];portConstraint=eastwest;whiteSpace=wrap;html=1;fontFamily=Courier New;" vertex="1" parent="SMVcqyuhqhL3269I1vGI-1">
          <mxGeometry y="26" width="320" height="164" as="geometry" />
        </mxCell>
        <mxCell id="SMVcqyuhqhL3269I1vGI-3" value="" style="line;strokeWidth=1;fillColor=none;align=left;verticalAlign=middle;spacingTop=-1;spacingLeft=3;spacingRight=3;rotatable=0;labelPosition=right;points=[];portConstraint=eastwest;strokeColor=inherit;fontFamily=Courier New;" vertex="1" parent="SMVcqyuhqhL3269I1vGI-1">
          <mxGeometry y="190" width="320" height="8" as="geometry" />
        </mxCell>
        <mxCell id="SMVcqyuhqhL3269I1vGI-4" value="+ calculateCalories(): float&lt;br&gt;+ averageSpeed(): float&lt;br&gt;+ averageHeartRate(): float&lt;br&gt;+ drawGraph(dataType: enum): null&lt;br&gt;+ getDistance(): float&lt;br&gt;+ getElevation(): float&lt;br&gt;+ renderMap(): null&lt;br&gt;+ sendReminder(minutesBefore: int): null" style="text;strokeColor=none;fillColor=none;align=left;verticalAlign=top;spacingLeft=4;spacingRight=4;overflow=hidden;rotatable=0;points=[[0,0.5],[1,0.5]];portConstraint=eastwest;whiteSpace=wrap;html=1;fontFamily=Courier New;" vertex="1" parent="SMVcqyuhqhL3269I1vGI-1">
          <mxGeometry y="198" width="320" height="132" as="geometry" />
        </mxCell>
        <mxCell id="SMVcqyuhqhL3269I1vGI-34" style="edgeStyle=orthogonalEdgeStyle;shape=connector;rounded=0;orthogonalLoop=1;jettySize=auto;html=1;labelBackgroundColor=default;strokeColor=default;align=center;verticalAlign=middle;fontFamily=Helvetica;fontSize=11;fontColor=default;startArrow=diamondThin;startFill=0;endArrow=none;endFill=0;" edge="1" parent="1" source="SMVcqyuhqhL3269I1vGI-5" target="SMVcqyuhqhL3269I1vGI-21">
          <mxGeometry relative="1" as="geometry" />
        </mxCell>
        <mxCell id="SMVcqyuhqhL3269I1vGI-5" value="FloatSnapshots" style="swimlane;fontStyle=1;align=center;verticalAlign=top;childLayout=stackLayout;horizontal=1;startSize=26;horizontalStack=0;resizeParent=1;resizeParentMax=0;resizeLast=0;collapsible=1;marginBottom=0;whiteSpace=wrap;html=1;fontFamily=Courier New;" vertex="1" parent="1">
          <mxGeometry x="440" y="320" width="380" height="180" as="geometry" />
        </mxCell>
        <mxCell id="SMVcqyuhqhL3269I1vGI-6" value="+ id: string&lt;br&gt;- interval: int&lt;br&gt;- startTime: DateTime&lt;br&gt;- valueSnapshots: float[]" style="text;strokeColor=none;fillColor=none;align=left;verticalAlign=top;spacingLeft=4;spacingRight=4;overflow=hidden;rotatable=0;points=[[0,0.5],[1,0.5]];portConstraint=eastwest;whiteSpace=wrap;html=1;fontFamily=Courier New;" vertex="1" parent="SMVcqyuhqhL3269I1vGI-5">
          <mxGeometry y="26" width="380" height="74" as="geometry" />
        </mxCell>
        <mxCell id="SMVcqyuhqhL3269I1vGI-7" value="" style="line;strokeWidth=1;fillColor=none;align=left;verticalAlign=middle;spacingTop=-1;spacingLeft=3;spacingRight=3;rotatable=0;labelPosition=right;points=[];portConstraint=eastwest;strokeColor=inherit;fontFamily=Courier New;" vertex="1" parent="SMVcqyuhqhL3269I1vGI-5">
          <mxGeometry y="100" width="380" height="10" as="geometry" />
        </mxCell>
        <mxCell id="SMVcqyuhqhL3269I1vGI-8" value="+&amp;nbsp;average(start: DateTime, end: DateTime): float&lt;br&gt;+&amp;nbsp;highest(start: DateTime, end: DateTime): float&lt;br&gt;+&amp;nbsp;lowest(start: DateTime, end: DateTime): float&lt;br&gt;+&amp;nbsp;drawGraph(start: DateTime, end: DateTime): null" style="text;strokeColor=none;fillColor=none;align=left;verticalAlign=top;spacingLeft=4;spacingRight=4;overflow=hidden;rotatable=0;points=[[0,0.5],[1,0.5]];portConstraint=eastwest;whiteSpace=wrap;html=1;fontFamily=Courier New;" vertex="1" parent="SMVcqyuhqhL3269I1vGI-5">
          <mxGeometry y="110" width="380" height="70" as="geometry" />
        </mxCell>
        <mxCell id="SMVcqyuhqhL3269I1vGI-21" value="DateTime" style="swimlane;fontStyle=1;align=center;verticalAlign=top;childLayout=stackLayout;horizontal=1;startSize=26;horizontalStack=0;resizeParent=1;resizeParentMax=0;resizeLast=0;collapsible=1;marginBottom=0;whiteSpace=wrap;html=1;fontFamily=Courier New;" vertex="1" parent="1">
          <mxGeometry x="440" y="40" width="240" height="200" as="geometry" />
        </mxCell>
        <mxCell id="SMVcqyuhqhL3269I1vGI-22" value="- year: int&lt;br&gt;-&amp;nbsp;month: int&lt;br&gt;-&amp;nbsp;day: int&lt;br&gt;-&amp;nbsp;hour: int&lt;br&gt;-&amp;nbsp;minute: int&lt;br&gt;-&amp;nbsp;second: int&lt;br&gt;-&amp;nbsp;timezone: enum" style="text;strokeColor=none;fillColor=none;align=left;verticalAlign=top;spacingLeft=4;spacingRight=4;overflow=hidden;rotatable=0;points=[[0,0.5],[1,0.5]];portConstraint=eastwest;whiteSpace=wrap;html=1;fontFamily=Courier New;" vertex="1" parent="SMVcqyuhqhL3269I1vGI-21">
          <mxGeometry y="26" width="240" height="124" as="geometry" />
        </mxCell>
        <mxCell id="SMVcqyuhqhL3269I1vGI-23" value="" style="line;strokeWidth=1;fillColor=none;align=left;verticalAlign=middle;spacingTop=-1;spacingLeft=3;spacingRight=3;rotatable=0;labelPosition=right;points=[];portConstraint=eastwest;strokeColor=inherit;fontFamily=Courier New;" vertex="1" parent="SMVcqyuhqhL3269I1vGI-21">
          <mxGeometry y="150" width="240" height="10" as="geometry" />
        </mxCell>
        <mxCell id="SMVcqyuhqhL3269I1vGI-24" value="+ getLocalDate(): string&lt;br&gt;+ getEpoch(): longint" style="text;strokeColor=none;fillColor=none;align=left;verticalAlign=top;spacingLeft=4;spacingRight=4;overflow=hidden;rotatable=0;points=[[0,0.5],[1,0.5]];portConstraint=eastwest;whiteSpace=wrap;html=1;fontFamily=Courier New;" vertex="1" parent="SMVcqyuhqhL3269I1vGI-21">
          <mxGeometry y="160" width="240" height="40" as="geometry" />
        </mxCell>
      </root>
    </mxGraphModel>
  </diagram>
  <diagram id="BI9tfXuzE6aW9vyWPtuc" name="Page-2">
    <mxGraphModel dx="1195" dy="654" grid="1" gridSize="10" guides="1" tooltips="1" connect="1" arrows="1" fold="1" page="1" pageScale="1" pageWidth="850" pageHeight="1100" math="0" shadow="0">
      <root>
        <mxCell id="0" />
        <mxCell id="1" parent="0" />
        <mxCell id="ShJ86JKUq4CFySIh93Wa-1" value="" style="shape=umlLifeline;perimeter=lifelinePerimeter;whiteSpace=wrap;html=1;container=1;dropTarget=0;collapsible=0;recursiveResize=0;outlineConnect=0;portConstraint=eastwest;newEdgeStyle={&quot;curved&quot;:0,&quot;rounded&quot;:0};participant=umlActor;fontFamily=Helvetica;fontSize=11;fontColor=default;flipH=0;" vertex="1" parent="1">
          <mxGeometry x="40" y="40" width="20" height="600" as="geometry" />
        </mxCell>
        <mxCell id="ShJ86JKUq4CFySIh93Wa-2" value="User" style="text;html=1;align=center;verticalAlign=middle;resizable=0;points=[];autosize=1;strokeColor=none;fillColor=none;fontSize=11;fontFamily=Helvetica;fontColor=default;" vertex="1" parent="1">
          <mxGeometry x="25" y="10" width="50" height="30" as="geometry" />
        </mxCell>
        <mxCell id="ShJ86JKUq4CFySIh93Wa-3" value=":App" style="shape=umlLifeline;perimeter=lifelinePerimeter;whiteSpace=wrap;html=1;container=1;dropTarget=0;collapsible=0;recursiveResize=0;outlineConnect=0;portConstraint=eastwest;newEdgeStyle={&quot;curved&quot;:0,&quot;rounded&quot;:0};fontFamily=Helvetica;fontSize=11;fontColor=default;flipH=0;" vertex="1" parent="1">
          <mxGeometry x="450" y="40" width="100" height="400" as="geometry" />
        </mxCell>
        <mxCell id="ShJ86JKUq4CFySIh93Wa-10" value="" style="html=1;points=[[0,0,0,0,5],[0,1,0,0,-5],[1,0,0,0,5],[1,1,0,0,-5]];perimeter=orthogonalPerimeter;outlineConnect=0;targetShapes=umlLifeline;portConstraint=eastwest;newEdgeStyle={&quot;curved&quot;:0,&quot;rounded&quot;:0};fontFamily=Helvetica;fontSize=11;fontColor=default;" vertex="1" parent="ShJ86JKUq4CFySIh93Wa-3">
          <mxGeometry x="45" y="140" width="10" height="220" as="geometry" />
        </mxCell>
        <mxCell id="ShJ86JKUq4CFySIh93Wa-16" value="" style="html=1;points=[[0,0,0,0,5],[0,1,0,0,-5],[1,0,0,0,5],[1,1,0,0,-5]];perimeter=orthogonalPerimeter;outlineConnect=0;targetShapes=umlLifeline;portConstraint=eastwest;newEdgeStyle={&quot;curved&quot;:0,&quot;rounded&quot;:0};fontFamily=Helvetica;fontSize=11;fontColor=default;" vertex="1" parent="ShJ86JKUq4CFySIh93Wa-3">
          <mxGeometry x="50" y="240" width="10" height="20" as="geometry" />
        </mxCell>
        <mxCell id="ShJ86JKUq4CFySIh93Wa-17" value="parseData" style="html=1;align=left;spacingLeft=2;endArrow=block;rounded=0;edgeStyle=orthogonalEdgeStyle;curved=0;rounded=0;labelBackgroundColor=default;strokeColor=default;verticalAlign=middle;fontFamily=Helvetica;fontSize=11;fontColor=default;shape=connector;" edge="1" target="ShJ86JKUq4CFySIh93Wa-16" parent="ShJ86JKUq4CFySIh93Wa-3">
          <mxGeometry relative="1" as="geometry">
            <mxPoint x="55" y="220" as="sourcePoint" />
            <Array as="points">
              <mxPoint x="85" y="250" />
            </Array>
          </mxGeometry>
        </mxCell>
        <mxCell id="ShJ86JKUq4CFySIh93Wa-18" value="" style="html=1;points=[[0,0,0,0,5],[0,1,0,0,-5],[1,0,0,0,5],[1,1,0,0,-5]];perimeter=orthogonalPerimeter;outlineConnect=0;targetShapes=umlLifeline;portConstraint=eastwest;newEdgeStyle={&quot;curved&quot;:0,&quot;rounded&quot;:0};fontFamily=Helvetica;fontSize=11;fontColor=default;" vertex="1" parent="ShJ86JKUq4CFySIh93Wa-3">
          <mxGeometry x="50" y="300" width="10" height="20" as="geometry" />
        </mxCell>
        <mxCell id="ShJ86JKUq4CFySIh93Wa-19" value="calculateStatistics" style="html=1;align=left;spacingLeft=2;endArrow=block;rounded=0;edgeStyle=orthogonalEdgeStyle;curved=0;rounded=0;labelBackgroundColor=default;strokeColor=default;verticalAlign=middle;fontFamily=Helvetica;fontSize=11;fontColor=default;shape=connector;" edge="1" parent="ShJ86JKUq4CFySIh93Wa-3" target="ShJ86JKUq4CFySIh93Wa-18">
          <mxGeometry relative="1" as="geometry">
            <mxPoint x="55" y="280" as="sourcePoint" />
            <Array as="points">
              <mxPoint x="85" y="310" />
            </Array>
          </mxGeometry>
        </mxCell>
        <mxCell id="ShJ86JKUq4CFySIh93Wa-4" value=":Database" style="shape=umlLifeline;perimeter=lifelinePerimeter;whiteSpace=wrap;html=1;container=1;dropTarget=0;collapsible=0;recursiveResize=0;outlineConnect=0;portConstraint=eastwest;newEdgeStyle={&quot;curved&quot;:0,&quot;rounded&quot;:0};fontFamily=Helvetica;fontSize=11;fontColor=default;flipH=0;" vertex="1" parent="1">
          <mxGeometry x="700" y="40" width="100" height="240" as="geometry" />
        </mxCell>
        <mxCell id="ShJ86JKUq4CFySIh93Wa-11" value="" style="html=1;points=[[0,0,0,0,5],[0,1,0,0,-5],[1,0,0,0,5],[1,1,0,0,-5]];perimeter=orthogonalPerimeter;outlineConnect=0;targetShapes=umlLifeline;portConstraint=eastwest;newEdgeStyle={&quot;curved&quot;:0,&quot;rounded&quot;:0};fontFamily=Helvetica;fontSize=11;fontColor=default;" vertex="1" parent="ShJ86JKUq4CFySIh93Wa-4">
          <mxGeometry x="45" y="160" width="10" height="60" as="geometry" />
        </mxCell>
        <mxCell id="ShJ86JKUq4CFySIh93Wa-5" value=":StatisticPage" style="shape=umlLifeline;perimeter=lifelinePerimeter;whiteSpace=wrap;html=1;container=1;dropTarget=0;collapsible=0;recursiveResize=0;outlineConnect=0;portConstraint=eastwest;newEdgeStyle={&quot;curved&quot;:0,&quot;rounded&quot;:0};fontFamily=Helvetica;fontSize=11;fontColor=default;flipH=0;" vertex="1" parent="1">
          <mxGeometry x="200" y="40" width="100" height="600" as="geometry" />
        </mxCell>
        <mxCell id="ShJ86JKUq4CFySIh93Wa-9" value="" style="html=1;points=[[0,0,0,0,5],[0,1,0,0,-5],[1,0,0,0,5],[1,1,0,0,-5]];perimeter=orthogonalPerimeter;outlineConnect=0;targetShapes=umlLifeline;portConstraint=eastwest;newEdgeStyle={&quot;curved&quot;:0,&quot;rounded&quot;:0};fontFamily=Helvetica;fontSize=11;fontColor=default;" vertex="1" parent="ShJ86JKUq4CFySIh93Wa-5">
          <mxGeometry x="45" y="50" width="10" height="490" as="geometry" />
        </mxCell>
        <mxCell id="ShJ86JKUq4CFySIh93Wa-12" value="" style="html=1;points=[[0,0,0,0,5],[0,1,0,0,-5],[1,0,0,0,5],[1,1,0,0,-5]];perimeter=orthogonalPerimeter;outlineConnect=0;targetShapes=umlLifeline;portConstraint=eastwest;newEdgeStyle={&quot;curved&quot;:0,&quot;rounded&quot;:0};fontFamily=Helvetica;fontSize=11;fontColor=default;" vertex="1" parent="ShJ86JKUq4CFySIh93Wa-5">
          <mxGeometry x="50" y="100" width="10" height="20" as="geometry" />
        </mxCell>
        <mxCell id="ShJ86JKUq4CFySIh93Wa-13" value="validateFilter" style="html=1;align=left;spacingLeft=2;endArrow=block;rounded=0;edgeStyle=orthogonalEdgeStyle;curved=0;rounded=0;labelBackgroundColor=default;strokeColor=default;verticalAlign=middle;fontFamily=Helvetica;fontSize=11;fontColor=default;shape=connector;" edge="1" target="ShJ86JKUq4CFySIh93Wa-12" parent="ShJ86JKUq4CFySIh93Wa-5">
          <mxGeometry relative="1" as="geometry">
            <mxPoint x="55" y="80" as="sourcePoint" />
            <Array as="points">
              <mxPoint x="85" y="110" />
            </Array>
          </mxGeometry>
        </mxCell>
        <mxCell id="ShJ86JKUq4CFySIh93Wa-21" value="" style="html=1;points=[[0,0,0,0,5],[0,1,0,0,-5],[1,0,0,0,5],[1,1,0,0,-5]];perimeter=orthogonalPerimeter;outlineConnect=0;targetShapes=umlLifeline;portConstraint=eastwest;newEdgeStyle={&quot;curved&quot;:0,&quot;rounded&quot;:0};fontFamily=Helvetica;fontSize=11;fontColor=default;" vertex="1" parent="ShJ86JKUq4CFySIh93Wa-5">
          <mxGeometry x="50" y="380" width="10" height="20" as="geometry" />
        </mxCell>
        <mxCell id="ShJ86JKUq4CFySIh93Wa-22" value="displayStatistics" style="html=1;align=left;spacingLeft=2;endArrow=block;rounded=0;edgeStyle=orthogonalEdgeStyle;curved=0;rounded=0;labelBackgroundColor=default;strokeColor=default;verticalAlign=middle;fontFamily=Helvetica;fontSize=11;fontColor=default;shape=connector;" edge="1" parent="ShJ86JKUq4CFySIh93Wa-5" target="ShJ86JKUq4CFySIh93Wa-21">
          <mxGeometry relative="1" as="geometry">
            <mxPoint x="55" y="360" as="sourcePoint" />
            <Array as="points">
              <mxPoint x="85" y="390" />
            </Array>
          </mxGeometry>
        </mxCell>
        <mxCell id="ShJ86JKUq4CFySIh93Wa-26" value="" style="html=1;points=[[0,0,0,0,5],[0,1,0,0,-5],[1,0,0,0,5],[1,1,0,0,-5]];perimeter=orthogonalPerimeter;outlineConnect=0;targetShapes=umlLifeline;portConstraint=eastwest;newEdgeStyle={&quot;curved&quot;:0,&quot;rounded&quot;:0};fontFamily=Helvetica;fontSize=11;fontColor=default;" vertex="1" parent="ShJ86JKUq4CFySIh93Wa-5">
          <mxGeometry x="50" y="480" width="10" height="20" as="geometry" />
        </mxCell>
        <mxCell id="ShJ86JKUq4CFySIh93Wa-27" value="displayError" style="html=1;align=left;spacingLeft=2;endArrow=block;rounded=0;edgeStyle=orthogonalEdgeStyle;curved=0;rounded=0;labelBackgroundColor=default;strokeColor=default;verticalAlign=middle;fontFamily=Helvetica;fontSize=11;fontColor=default;shape=connector;" edge="1" parent="ShJ86JKUq4CFySIh93Wa-5" target="ShJ86JKUq4CFySIh93Wa-26">
          <mxGeometry relative="1" as="geometry">
            <mxPoint x="55" y="460" as="sourcePoint" />
            <Array as="points">
              <mxPoint x="85" y="490" />
            </Array>
          </mxGeometry>
        </mxCell>
        <mxCell id="ShJ86JKUq4CFySIh93Wa-6" value="filterData(fromDate, toDate)" style="html=1;verticalAlign=bottom;endArrow=block;curved=0;rounded=0;labelBackgroundColor=default;strokeColor=default;align=center;fontFamily=Helvetica;fontSize=11;fontColor=default;shape=connector;" edge="1" parent="1">
          <mxGeometry width="80" relative="1" as="geometry">
            <mxPoint x="49.5" y="100" as="sourcePoint" />
            <mxPoint x="245" y="100" as="targetPoint" />
          </mxGeometry>
        </mxCell>
        <mxCell id="ShJ86JKUq4CFySIh93Wa-7" value="fetchActivityHistory(fromDate, toDate)" style="html=1;verticalAlign=bottom;endArrow=block;curved=0;rounded=0;labelBackgroundColor=default;strokeColor=default;align=center;fontFamily=Helvetica;fontSize=11;fontColor=default;shape=connector;" edge="1" parent="1">
          <mxGeometry width="80" relative="1" as="geometry">
            <mxPoint x="255" y="200" as="sourcePoint" />
            <mxPoint x="495" y="200" as="targetPoint" />
          </mxGeometry>
        </mxCell>
        <mxCell id="ShJ86JKUq4CFySIh93Wa-8" value="queryDatabase(fromDate, toDate)" style="html=1;verticalAlign=bottom;endArrow=block;curved=0;rounded=0;labelBackgroundColor=default;strokeColor=default;align=center;fontFamily=Helvetica;fontSize=11;fontColor=default;shape=connector;" edge="1" parent="1">
          <mxGeometry width="80" relative="1" as="geometry">
            <mxPoint x="505" y="220" as="sourcePoint" />
            <mxPoint x="745" y="220" as="targetPoint" />
          </mxGeometry>
        </mxCell>
        <mxCell id="ShJ86JKUq4CFySIh93Wa-14" value="" style="html=1;verticalAlign=bottom;endArrow=open;dashed=1;endSize=8;curved=0;rounded=0;labelBackgroundColor=default;strokeColor=default;align=center;fontFamily=Helvetica;fontSize=11;fontColor=default;shape=connector;" edge="1" parent="1">
          <mxGeometry relative="1" as="geometry">
            <mxPoint x="745" y="240" as="sourcePoint" />
            <mxPoint x="505" y="240" as="targetPoint" />
          </mxGeometry>
        </mxCell>
        <mxCell id="ShJ86JKUq4CFySIh93Wa-20" value="" style="html=1;verticalAlign=bottom;endArrow=open;dashed=1;endSize=8;curved=0;rounded=0;labelBackgroundColor=default;strokeColor=default;align=center;fontFamily=Helvetica;fontSize=11;fontColor=default;shape=connector;" edge="1" parent="1">
          <mxGeometry relative="1" as="geometry">
            <mxPoint x="495" y="380" as="sourcePoint" />
            <mxPoint x="255" y="380" as="targetPoint" />
          </mxGeometry>
        </mxCell>
        <mxCell id="ShJ86JKUq4CFySIh93Wa-23" value="alt" style="shape=umlFrame;whiteSpace=wrap;html=1;pointerEvents=0;fontFamily=Helvetica;fontSize=11;fontColor=default;" vertex="1" parent="1">
          <mxGeometry x="160" y="170" width="640" height="430" as="geometry" />
        </mxCell>
        <mxCell id="ShJ86JKUq4CFySIh93Wa-24" value="[valid filter]" style="text;html=1;align=left;verticalAlign=middle;resizable=0;points=[];autosize=1;strokeColor=none;fillColor=none;fontSize=11;fontFamily=Helvetica;fontColor=default;" vertex="1" parent="1">
          <mxGeometry x="160" y="200" width="80" height="30" as="geometry" />
        </mxCell>
        <mxCell id="ShJ86JKUq4CFySIh93Wa-25" value="[invalid filter]" style="text;html=1;align=left;verticalAlign=middle;resizable=0;points=[];autosize=1;strokeColor=none;fillColor=none;fontSize=11;fontFamily=Helvetica;fontColor=default;" vertex="1" parent="1">
          <mxGeometry x="160" y="490" width="80" height="30" as="geometry" />
        </mxCell>
        <mxCell id="ShJ86JKUq4CFySIh93Wa-30" value="" style="line;strokeWidth=1;fillColor=none;align=left;verticalAlign=middle;spacingTop=-1;spacingLeft=3;spacingRight=3;rotatable=0;labelPosition=right;points=[];portConstraint=eastwest;strokeColor=inherit;fontFamily=Helvetica;fontSize=11;fontColor=default;dashed=1;" vertex="1" parent="1">
          <mxGeometry x="160" y="470" width="640" height="8" as="geometry" />
        </mxCell>
      </root>
    </mxGraphModel>
  </diagram>
</mxfile>
